ply
format ascii 1.0
comment Created by Blender 2.69 (sub 0) - www.blender.org, source file: ''
element vertex 108
property float x
property float y
property float z
property float nx
property float ny
property float nz
property float s
property float t
element face 35
property list uchar uint vertex_indices
end_header
10.100000 -10.100000 0.000000 1.000000 0.000000 0.000000 0.727086 0.000000
10.100000 10.100000 0.000000 1.000000 0.000000 0.000000 0.728478 0.453504
10.100000 10.100000 2.000000 1.000000 0.000000 0.000000 0.638675 0.453780
10.100000 -10.100000 2.000000 1.000000 0.000000 0.000000 0.637284 0.000275
1.900000 -10.100000 0.000000 0.000000 -1.000000 -0.000000 0.272962 0.639542
10.100000 -10.100000 0.000000 0.000000 -1.000000 -0.000000 0.272397 0.823638
10.100000 -10.100000 2.000000 0.000000 -1.000000 -0.000000 0.182594 0.823362
1.900000 -10.100000 2.000000 0.000000 -1.000000 -0.000000 0.183159 0.639267
0.000000 10.100000 0.000000 0.000000 1.000000 0.000000 0.545394 0.227028
0.000000 10.100000 2.000000 0.000000 1.000000 0.000000 0.455591 0.226752
10.100000 10.100000 2.000000 0.000000 1.000000 0.000000 0.456287 0.000000
10.100000 10.100000 0.000000 0.000000 1.000000 0.000000 0.546090 0.000276
1.900000 -10.100000 0.000000 -1.000000 -0.000000 0.000000 0.363729 0.906430
1.900000 -10.100000 2.000000 -1.000000 -0.000000 0.000000 0.273926 0.906706
1.900000 -4.000000 2.000000 -1.000000 -0.000000 0.000000 0.273506 0.769756
1.900000 -4.000000 0.000000 -1.000000 -0.000000 0.000000 0.363309 0.769481
9.900000 -9.900000 2.000000 -1.000000 0.000000 0.000000 0.365093 0.899695
9.900000 9.900000 2.000000 -1.000000 0.000000 0.000000 0.363729 0.455171
9.900000 9.900000 0.000000 -1.000000 0.000000 0.000000 0.453532 0.454895
9.900000 -9.900000 0.000000 -1.000000 0.000000 0.000000 0.454895 0.899419
2.100000 -9.900000 2.000000 0.000000 1.000000 -0.000000 0.819644 0.444524
9.900000 -9.900000 2.000000 0.000000 1.000000 -0.000000 0.820181 0.269408
9.900000 -9.900000 0.000000 0.000000 1.000000 -0.000000 0.909984 0.269684
2.100000 -9.900000 0.000000 0.000000 1.000000 -0.000000 0.909447 0.444799
9.900000 9.900000 0.000000 0.000000 -1.000000 0.000000 0.819644 0.444524
9.900000 9.900000 2.000000 0.000000 -1.000000 0.000000 0.729841 0.444799
0.000000 9.900000 2.000000 0.000000 -1.000000 0.000000 0.729160 0.222537
0.000000 9.900000 0.000000 0.000000 -1.000000 0.000000 0.818962 0.222262
2.100000 -4.000000 0.000000 1.000000 -0.000000 0.000000 0.272962 0.956097
2.100000 -4.000000 2.000000 1.000000 -0.000000 0.000000 0.183159 0.956373
2.100000 -9.900000 2.000000 1.000000 -0.000000 0.000000 0.182753 0.823914
2.100000 -9.900000 0.000000 1.000000 -0.000000 0.000000 0.272555 0.823638
1.900000 -10.100000 2.000000 0.000000 0.000000 1.000000 0.638991 0.908964
10.100000 -10.100000 2.000000 0.000000 0.000000 1.000000 0.454895 0.908400
9.900000 -9.900000 2.000000 0.000000 0.000000 1.000000 0.459399 0.903923
2.100000 -9.900000 2.000000 0.000000 0.000000 1.000000 0.634515 0.904460
0.000000 10.100000 0.000000 0.000000 0.000000 -1.000000 0.226752 0.454200
10.100000 10.100000 0.000000 0.000000 0.000000 -1.000000 0.000000 0.453504
9.900000 9.900000 0.000000 0.000000 0.000000 -1.000000 0.004504 0.449028
0.000000 9.900000 0.000000 0.000000 0.000000 -1.000000 0.226766 0.449710
1.900000 -4.000000 2.000000 0.000000 0.000000 1.000000 0.639411 0.772015
2.100000 -4.000000 2.000000 0.000000 0.000000 1.000000 0.634921 0.772001
1.900000 -10.100000 0.000000 -0.000000 0.000000 -1.000000 0.185487 0.000565
1.900000 -4.000000 0.000000 -0.000000 0.000000 -1.000000 0.185067 0.137514
2.100000 -4.000000 0.000000 -0.000000 0.000000 -1.000000 0.180577 0.137500
2.100000 -9.900000 0.000000 -0.000000 0.000000 -1.000000 0.180983 0.005041
10.100000 -10.100000 0.000000 0.000000 -0.000000 -1.000000 0.001391 0.000000
9.900000 -9.900000 0.000000 0.000000 -0.000000 -1.000000 0.005868 0.004504
1.900000 -4.000000 0.000000 0.000000 1.000000 0.000000 0.824410 0.179606
1.900000 -4.000000 2.000000 0.000000 1.000000 0.000000 0.824134 0.269408
2.100000 -4.000000 2.000000 0.000000 1.000000 0.000000 0.819644 0.269395
2.100000 -4.000000 0.000000 0.000000 1.000000 0.000000 0.819920 0.179592
10.100000 10.100000 2.000000 -0.000000 0.000000 1.000000 0.456287 0.454895
9.900000 9.900000 2.000000 -0.000000 0.000000 1.000000 0.460763 0.459399
0.000000 10.100000 2.000000 0.000000 -0.000000 1.000000 0.683039 0.455591
0.000000 9.900000 2.000000 0.000000 -0.000000 1.000000 0.683025 0.460081
-10.100000 -10.100000 0.000000 -1.000000 -0.000000 0.000000 0.637284 0.453504
-10.100000 -10.100000 2.000000 -1.000000 -0.000000 0.000000 0.547481 0.453780
-10.100000 10.100000 2.000000 -1.000000 -0.000000 0.000000 0.546090 0.000275
-10.100000 10.100000 0.000000 -1.000000 -0.000000 0.000000 0.635892 0.000000
-1.900000 -10.100000 0.000000 0.000000 -1.000000 0.000000 0.272962 0.638991
-1.900000 -10.100000 2.000000 0.000000 -1.000000 0.000000 0.183159 0.639267
-10.100000 -10.100000 2.000000 0.000000 -1.000000 0.000000 0.182594 0.455171
-10.100000 -10.100000 0.000000 0.000000 -1.000000 0.000000 0.272397 0.454895
-10.100000 10.100000 0.000000 0.000000 1.000000 0.000000 0.544698 0.453780
-10.100000 10.100000 2.000000 0.000000 1.000000 0.000000 0.454895 0.453504
-1.900000 -10.100000 0.000000 1.000000 0.000000 0.000000 0.181513 0.769481
-1.900000 -4.000000 0.000000 1.000000 0.000000 0.000000 0.181934 0.906430
-1.900000 -4.000000 2.000000 1.000000 0.000000 0.000000 0.092131 0.906706
-1.900000 -10.100000 2.000000 1.000000 0.000000 0.000000 0.091711 0.769756
-9.900000 -9.900000 2.000000 1.000000 0.000000 0.000000 0.000000 0.455171
-9.900000 -9.900000 0.000000 1.000000 0.000000 0.000000 0.089803 0.454895
-9.900000 9.900000 0.000000 1.000000 0.000000 0.000000 0.091167 0.899419
-9.900000 9.900000 2.000000 1.000000 0.000000 0.000000 0.001364 0.899695
-2.100000 -9.900000 2.000000 -0.000000 1.000000 0.000000 0.820181 0.000000
-2.100000 -9.900000 0.000000 -0.000000 1.000000 0.000000 0.909984 0.000275
-9.900000 -9.900000 0.000000 -0.000000 1.000000 0.000000 0.909447 0.175391
-9.900000 -9.900000 2.000000 -0.000000 1.000000 0.000000 0.819644 0.175115
-9.900000 9.900000 0.000000 0.000000 -1.000000 -0.000000 0.818281 0.000000
-9.900000 9.900000 2.000000 0.000000 -1.000000 -0.000000 0.728478 0.000276
-2.100000 -4.000000 0.000000 -1.000000 0.000000 -0.000000 0.999594 0.454895
-2.100000 -9.900000 0.000000 -1.000000 0.000000 -0.000000 1.000000 0.587355
-2.100000 -9.900000 2.000000 -1.000000 0.000000 -0.000000 0.910197 0.587630
-2.100000 -4.000000 2.000000 -1.000000 0.000000 -0.000000 0.909791 0.455171
-1.900000 -10.100000 2.000000 -0.000000 0.000000 1.000000 0.724304 0.909226
-2.100000 -9.900000 2.000000 -0.000000 0.000000 1.000000 0.728808 0.904750
-9.900000 -9.900000 2.000000 -0.000000 0.000000 1.000000 0.903923 0.905287
-10.100000 -10.100000 2.000000 -0.000000 0.000000 1.000000 0.908400 0.909791
-9.900000 9.900000 0.000000 0.000000 0.000000 -1.000000 0.449028 0.450392
-10.100000 10.100000 0.000000 0.000000 0.000000 -1.000000 0.453504 0.454895
-1.900000 -4.000000 2.000000 0.000000 -0.000000 1.000000 0.724724 0.772277
-2.100000 -4.000000 2.000000 0.000000 -0.000000 1.000000 0.729214 0.772291
-1.900000 -10.100000 0.000000 0.000000 -0.000000 -1.000000 0.270800 0.000827
-2.100000 -9.900000 0.000000 0.000000 -0.000000 -1.000000 0.275276 0.005330
-2.100000 -4.000000 0.000000 0.000000 -0.000000 -1.000000 0.274870 0.137790
-1.900000 -4.000000 0.000000 0.000000 -0.000000 -1.000000 0.270380 0.137776
0.000000 10.100000 2.000000 1.000000 0.000000 -0.000000 0.847962 0.269408
0.000000 9.900000 2.000000 1.000000 0.000000 -0.000000 0.843472 0.269395
0.000000 9.900000 0.000000 1.000000 0.000000 -0.000000 0.843748 0.179592
0.000000 10.100000 0.000000 1.000000 0.000000 -0.000000 0.848238 0.179606
-10.100000 -10.100000 0.000000 -0.000000 0.000000 -1.000000 0.454895 0.001391
-9.900000 -9.900000 0.000000 -0.000000 0.000000 -1.000000 0.450392 0.005868
-1.900000 -4.000000 0.000000 0.000000 1.000000 0.000000 0.824685 0.179592
-2.100000 -4.000000 0.000000 0.000000 1.000000 0.000000 0.829176 0.179606
-2.100000 -4.000000 2.000000 0.000000 1.000000 0.000000 0.828900 0.269408
-1.900000 -4.000000 2.000000 0.000000 1.000000 0.000000 0.824410 0.269395
-9.900000 9.900000 2.000000 0.000000 0.000000 1.000000 0.905287 0.460763
-10.100000 10.100000 2.000000 0.000000 0.000000 1.000000 0.909791 0.456287
4 0 1 2 3
4 4 5 6 7
4 8 9 10 11
4 12 13 14 15
4 16 17 18 19
4 20 21 22 23
4 24 25 26 27
4 28 29 30 31
4 32 33 34 35
4 36 37 38 39
4 40 32 35 41
4 42 43 44 45
4 46 42 45 47
4 48 49 50 51
4 33 52 53 34
4 37 46 47 38
4 52 54 55 53
4 56 57 58 59
4 60 61 62 63
4 8 64 65 9
4 66 67 68 69
4 70 71 72 73
4 74 75 76 77
4 78 27 26 79
4 80 81 82 83
4 84 85 86 87
4 36 39 88 89
4 90 91 85 84
4 92 93 94 95
4 96 97 98 99
4 100 101 93 92
4 102 103 104 105
4 87 86 106 107
4 89 88 101 100
4 107 106 55 54
